<svg width="40" height="34" viewBox="0 0 40 34" fill="none" xmlns="http://www.w3.org/2000/svg">
<path d="M0.639341 18.5541L15.0848 32.9999C15.4971 33.4122 16.0467 33.6386 16.6327 33.6386C17.2194 33.6386 17.7686 33.4119 18.181 32.9999L19.4925 31.688C19.9046 31.2763 20.1315 30.7264 20.1315 30.14C20.1315 29.554 19.9046 28.9856 19.4925 28.5739L11.0653 20.1281L37.839 20.1281C39.0462 20.1281 40 19.1831 40 17.9756L40 16.121C40 14.9135 39.0462 13.8732 37.839 13.8732L10.9697 13.8732L19.4922 5.38025C19.9042 4.96789 20.1312 4.43293 20.1312 3.8466C20.1312 3.26091 19.9042 2.71815 19.4922 2.30612L18.1807 0.998492C17.7683 0.586138 17.219 0.361425 16.6324 0.361425C16.0464 0.361425 15.4968 0.589063 15.0844 1.00142L0.639015 15.4468C0.225686 15.8605 -0.00162846 16.4127 -2.40614e-06 16.9997C-0.00130316 17.5886 0.225686 18.1411 0.639341 18.5541Z" fill="#11112B"/>
</svg>
